<svg xmlns="http://www.w3.org/2000/svg"
	xmlns:xlink="http://www.w3.org/1999/xlink">
	<symbol id="temp">
		<path d="M17.5 2c.827 0 1.5.673 1.5 1.5v7.525c0 1.569.514 2.287 1.411 3.05 1.01.858 1.589 2.106 1.589 3.425 0 2.481-2.019 4.5-4.5 4.5s-4.5-2.019-4.5-4.5c0-1.319.579-2.567 1.59-3.425.896-.761 1.41-1.479 1.41-3.05v-7.525c0-.827.673-1.5 1.5-1.5zm0-2c-1.933 0-3.5 1.567-3.5 3.5v7.525c0 .587-.258 1.146-.705 1.525-1.403 1.192-2.295 2.965-2.295 4.95 0 3.59 2.909 6.5 6.5 6.5s6.5-2.91 6.5-6.5c0-1.985-.892-3.758-2.295-4.95-.447-.38-.705-.938-.705-1.525v-7.525c0-1.933-1.567-3.5-3.5-3.5zm2.107 14.718c-1.012-.89-1.607-1.734-1.607-3.22v-6.498h-1v6.498c0 1.484-.597 2.332-1.607 3.22-.794.698-1.393 1.642-1.393 2.782 0 1.933 1.567 3.5 3.5 3.5s3.5-1.567 3.5-3.5c0-1.14-.599-2.083-1.393-2.782zm-13.107-8.718c1.379 0 2.5 1.122 2.5 2.5s-1.121 2.5-2.5 2.5-2.5-1.122-2.5-2.5 1.121-2.5 2.5-2.5zm0-1c-1.933 0-3.5 1.567-3.5 3.5s1.567 3.5 3.5 3.5 3.5-1.567 3.5-3.5-1.567-3.5-3.5-3.5zm-4.5 3.5c0-.171.032-.333.051-.5h-2.051v1h2.051c-.019-.167-.051-.329-.051-.5zm1.705-3.501l-1.448-1.449-.707.707 1.448 1.448c.21-.261.445-.497.707-.706zm6.297.706l1.447-1.448-.707-.707-1.448 1.448c.263.21.498.445.708.707zm-3.502-1.705c.171 0 .334.032.5.05v-2.05h-1v2.05c.166-.018.329-.05.5-.05zm0 9c-.171 0-.334-.032-.5-.05v2.05h1v-2.05c-.166.018-.329.05-.5.05zm4.449-5c.019.167.051.329.051.5l-.051.5h2.051v-1h-2.051zm-7.951 3.294l-1.448 1.449.707.707 1.448-1.448c-.262-.21-.497-.446-.707-.708zm6.296.708l1.448 1.448.707-.707-1.447-1.448c-.21.262-.445.497-.708.707z"/>
	</symbol>
	<symbol id="humidity">
		<path d="M11.234 14.141c0 .714-.138 1.249-.414 1.608-.276.358-.681.538-1.215.538-.512 0-.907-.184-1.187-.552-.278-.367-.418-.899-.418-1.594 0-1.418.535-2.127 1.606-2.127.524 0 .927.184 1.208.552.28.368.42.893.42 1.575zm-2.061.01c0 .394.035.688.105.882.07.194.182.291.337.291.298 0 .447-.391.447-1.173 0-.776-.149-1.163-.447-1.163-.155 0-.268.095-.337.286-.07.19-.105.483-.105.877zm5.263-2.039l-3.774 6.804h-1.117l3.774-6.804h1.117zm1.564 4.747c0 .711-.138 1.245-.414 1.603-.276.359-.681.538-1.215.538-.512 0-.908-.184-1.187-.552-.279-.368-.419-.897-.419-1.589 0-1.418.535-2.127 1.606-2.127.524 0 .927.184 1.208.552.281.367.421.893.421 1.575zm-2.062.009c0 .394.035.688.105.882.07.194.182.291.337.291.298 0 .447-.391.447-1.173 0-.776-.149-1.163-.447-1.163-.155 0-.268.095-.337.286-.07.191-.105.484-.105.877zm-1.938-11.308c2.725 5.186 6 6.718 6 10.515 0 3.267-2.691 5.925-6 5.925s-6-2.658-6-5.925c0-3.797 3.274-5.327 6-10.515zm0-5.56c-2.333 8.958-8 10.188-8 16.075 0 4.378 3.579 7.925 8 7.925 4.421 0 8-3.547 8-7.925 0-5.887-5.667-7.117-8-16.075z"/>
	</symbol>
	<symbol id="celsius">
		<path d="M6 7c.551 0 1 .449 1 1s-.449 1-1 1c-.551 0-1-.449-1-1s.449-1 1-1zm0-1c-1.105 0-2 .895-2 2s.895 2 2 2 2-.895 2-2-.895-2-2-2zm11.984 7.949c-.091 1.257-.555 2.246-1.392 2.968-.836.722-1.939 1.083-3.309 1.083-1.497 0-2.675-.504-3.533-1.512-.858-1.008-1.287-2.392-1.287-4.151v-.714c0-1.123.198-2.112.593-2.968.396-.855.961-1.512 1.697-1.969.735-.457 1.589-.686 2.562-.686 1.348 0 2.433.361 3.257 1.083.824.722 1.299 1.735 1.428 3.04h-2.406c-.059-.754-.269-1.301-.63-1.64-.361-.34-.91-.509-1.648-.509-.802 0-1.402.288-1.801.862-.398.575-.603 1.467-.614 2.675v.882c0 1.262.191 2.185.573 2.767.382.583.985.874 1.809.874.743 0 1.298-.17 1.664-.509.366-.34.576-.865.63-1.576h2.407zm-5.984-11.949c5.514 0 10 4.486 10 10s-4.486 10-10 10-10-4.486-10-10 4.486-10 10-10zm0-2c-6.627 0-12 5.373-12 12s5.373 12 12 12 12-5.373 12-12-5.373-12-12-12z"/>
	</symbol>
	<symbol id="windSpead">
		<path d="M7 12l13-4v-4l-13-4-5 5v-2h-2v21h2v-17l5 5zm8-8.492l2 .615v3.754l-2 .615v-4.984zm-5-1.539l2 .615v6.831l-2 .615v-8.061zm-3-.555v9.172l-4.586-4.586 4.586-4.586zm17 12.086c0 1.932-1.568 3.5-3.5 3.5h-15.5v-2h15.5c.827 0 1.5-.673 1.5-1.5s-.673-1.5-1.5-1.5c-.774 0-1.404.592-1.486 1.345l-1.886-.727c.395-1.502 1.748-2.618 3.372-2.618 1.932 0 3.5 1.568 3.5 3.5zm-6 7.5c0 1.656-1.344 3-3 3-1.16 0-2.155-.666-2.654-1.631l1.749-.956c.158.345.502.587.905.587.552 0 1-.448 1-1s-.448-1-1-1h-10v-2h10c1.656 0 3 1.344 3 3z"/>
	</symbol>
	<symbol id="windDeg">
		<path d="M12 2c5.514 0 10 4.486 10 10s-4.486 10-10 10-10-4.486-10-10 4.486-10 10-10zm0-2c-6.627 0-12 5.373-12 12s5.373 12 12 12 12-5.373 12-12-5.373-12-12-12zm1.758 13.757l4.242-1.414-10.606-4.95 4.949 10.607 1.415-4.243z"/>
	</symbol>
	<symbol id="clouds">
		<path d="M20.422 11.516c-.178-3.233-3.031-5.778-6.432-5.492-1.087-1.239-2.693-2.024-4.49-2.024-3.172 0-5.754 2.443-5.922 5.516-2.033.359-3.578 2.105-3.578 4.206 0 2.362 1.949 4.278 4.354 4.278h1.326c.771 1.198 2.124 2 3.674 2h10.291c2.406 0 4.355-1.916 4.355-4.278 0-2.101-1.545-3.847-3.578-4.206zm-15.395 4.484h-.673c-1.297 0-2.354-1.022-2.354-2.278 0-2.118 2.104-2.597 3.488-2.512-.05-1.356.137-5.21 4.012-5.21.967 0 1.714.25 2.29.644-1.823.922-3.096 2.746-3.212 4.872-2.022.358-3.697 2.127-3.551 4.484zm14.618 2h-10.291c-1.297 0-2.354-1.022-2.354-2.278 0-2.118 2.104-2.597 3.488-2.512-.05-1.356.137-5.21 4.012-5.21 3.771 0 4.229 3.771 4.012 5.209 1.509-.105 3.488.437 3.488 2.513 0 1.256-1.057 2.278-2.355 2.278z"/>
	</symbol>
	<symbol id="sunrise">
		<path d="M4.069 17c-.041.328-.069.661-.069 1s.028.672.069 1h-4.069v-2h4.069zm6.931-7h2v-5h3l-4-4-4 4h3v5zm-3.897 1.688l-2.88-2.881-1.415 1.414 2.881 2.881c.411-.529.885-1.003 1.414-1.414zm12.828 5.312c.041.328.069.661.069 1s-.028.672-.069 1h4.069v-2h-4.069zm-1.931 1c0 .341-.035.674-.09 1h-11.82c-.055-.326-.09-.659-.09-1 0-3.314 2.686-6 6-6s6 2.686 6 6zm-2.142-1c-.448-1.72-2.001-3-3.858-3-1.858 0-3.41 1.28-3.857 3h7.715zm3.92-8.193l-2.881 2.881c.528.411 1.003.886 1.414 1.414l2.881-2.881-1.414-1.414zm4.222 12.193h-24v2h24v-2z"/>
	</symbol>
	<symbol id="sunset">
		<path d="M4.069 17c-.041.328-.069.661-.069 1s.028.672.069 1h-4.069v-2h4.069zm8.931-16h-2v5h-3l4 4 4-4h-3v-5zm-5.897 10.688l-2.88-2.881-1.415 1.414 2.881 2.881c.411-.529.885-1.003 1.414-1.414zm12.828 5.312c.041.328.069.661.069 1s-.028.672-.069 1h4.069v-2h-4.069zm-1.931 1c0 .341-.035.674-.09 1h-11.82c-.055-.326-.09-.659-.09-1 0-3.314 2.685-6 6-6 3.314 0 6 2.686 6 6zm-2.142-1c-.448-1.72-2.001-3-3.858-3-1.858 0-3.41 1.28-3.857 3h7.715zm3.92-8.193l-2.881 2.881c.528.411 1.003.886 1.414 1.414l2.881-2.881-1.414-1.414zm4.222 12.193h-24v2h24v-2z"/>
	</symbol>
	<symbol id="pressure">
		<path d="M11 6.999c2.395.731 4.27 2.607 4.999 5.001.733-2.395 2.608-4.269 5.001-5-2.393-.731-4.268-2.605-5.001-5-.729 2.394-2.604 4.268-4.999 4.999zm7 7c1.437.438 2.562 1.564 2.999 3.001.44-1.437 1.565-2.562 3.001-3-1.436-.439-2.561-1.563-3.001-3-.437 1.436-1.562 2.561-2.999 2.999zm-6 5.501c1.198.365 2.135 1.303 2.499 2.5.366-1.198 1.304-2.135 2.501-2.5-1.197-.366-2.134-1.302-2.501-2.5-.364 1.197-1.301 2.134-2.499 2.5zm-6.001-12.5c-.875 2.873-3.128 5.125-5.999 6.001 2.876.88 5.124 3.128 6.004 6.004.875-2.874 3.128-5.124 5.996-6.004-2.868-.874-5.121-3.127-6.001-6.001z"/>
	</symbol>
</svg>